<!DOCTYPE svg PUBLIC "-//W3C//DTD SVG 20010904//EN" "http://www.w3.org/TR/2001/REC-SVG-20010904/DTD/svg10.dtd">
<svg version="1.0" xmlns="http://www.w3.org/2000/svg" width="54px" height="54px" viewBox="0 0 540 540" preserveAspectRatio="xMidYMid meet">
<g id="layer101" fill="#666666" stroke="none">
 <path d="M20 520 c-19 -19 -20 -33 -20 -250 0 -217 1 -231 20 -250 19 -19 33 -20 248 -20 190 0 231 3 250 16 22 15 22 19 22 253 0 218 -2 239 -18 254 -16 15 -49 17 -250 17 -219 0 -233 -1 -252 -20z m450 -165 c0 -96 -3 -115 -15 -115 -11 0 -15 12 -15 44 0 81 -65 146 -153 154 -100 8 -176 -52 -185 -148 -3 -33 -9 -50 -18 -50 -11 0 -14 24 -14 115 l0 115 200 0 200 0 0 -115z m-150 0 c37 -19 50 -43 50 -90 0 -48 -44 -95 -90 -95 -38 0 -86 24 -100 49 -14 27 -13 84 3 103 38 47 87 59 137 33z m150 -240 l0 -45 -45 0 -45 0 0 45 0 45 45 0 45 0 0 -45z"/>
 </g>

</svg>